<svg xmlns="http://www.w3.org/2000/svg" width="1600" height="900" viewBox="0 0 1600 900" role="img" aria-labelledby="title desc">
  <title id="title">Chat Browser Source signal flow</title>
  <desc id="desc">Two platform chat connections feed a protected overlay page that OBS composites above a camera source.</desc>
  <defs>
    <linearGradient id="background" x1="0" y1="0" x2="1" y2="1">
      <stop offset="0" stop-color="#09111f" />
      <stop offset="1" stop-color="#17233a" />
    </linearGradient>
    <linearGradient id="camera" x1="0" y1="1" x2="1" y2="0">
      <stop offset="0" stop-color="#143654" />
      <stop offset="0.52" stop-color="#237287" />
      <stop offset="1" stop-color="#d28c5e" />
    </linearGradient>
    <filter id="shadow" x="-20%" y="-20%" width="140%" height="150%">
      <feDropShadow dx="0" dy="22" stdDeviation="24" flood-color="#02050b" flood-opacity="0.46" />
    </filter>
    <marker id="arrow" viewBox="0 0 12 12" refX="10" refY="6" markerWidth="12" markerHeight="12" orient="auto-start-reverse">
      <path d="M1 1l10 5-10 5z" fill="#8da3c7" />
    </marker>
  </defs>

  <rect width="1600" height="900" rx="44" fill="url(#background)" />
  <circle cx="132" cy="146" r="240" fill="#6e45ff" opacity="0.08" />
  <circle cx="1490" cy="790" r="300" fill="#53d56f" opacity="0.06" />

  <g filter="url(#shadow)">
    <rect x="90" y="198" width="280" height="190" rx="42" fill="#121d31" stroke="#32425f" stroke-width="4" />
    <circle cx="167" cy="293" r="43" fill="#7048e8" />
    <rect x="230" y="248" width="92" height="22" rx="11" fill="#8b68f2" />
    <rect x="230" y="286" width="72" height="18" rx="9" fill="#5940a6" />
    <rect x="230" y="320" width="110" height="18" rx="9" fill="#5940a6" />

    <rect x="90" y="512" width="280" height="190" rx="42" fill="#121d31" stroke="#32425f" stroke-width="4" />
    <circle cx="167" cy="607" r="43" fill="#43c867" />
    <rect x="230" y="562" width="108" height="22" rx="11" fill="#67df83" />
    <rect x="230" y="600" width="92" height="18" rx="9" fill="#318f4b" />
    <rect x="230" y="634" width="66" height="18" rx="9" fill="#318f4b" />
  </g>

  <path d="M370 293C450 293 450 370 530 370" fill="none" stroke="#8da3c7" stroke-width="8" marker-end="url(#arrow)" />
  <path d="M370 607C450 607 450 530 530 530" fill="none" stroke="#8da3c7" stroke-width="8" marker-end="url(#arrow)" />

  <g filter="url(#shadow)">
    <rect x="540" y="284" width="300" height="332" rx="44" fill="#121d31" stroke="#4b5e80" stroke-width="4" />
    <rect x="598" y="349" width="184" height="164" rx="28" fill="#080d17" stroke="#7186aa" stroke-width="4" />
    <circle cx="644" cy="395" r="15" fill="#7048e8" />
    <rect x="674" y="383" width="76" height="24" rx="12" fill="#7048e8" />
    <circle cx="644" cy="443" r="15" fill="#43c867" />
    <rect x="674" y="431" width="58" height="24" rx="12" fill="#43c867" />
    <circle cx="644" cy="491" r="15" fill="#7048e8" />
    <rect x="674" y="479" width="92" height="24" rx="12" fill="#7048e8" />
    <circle cx="690" cy="558" r="27" fill="#d9e2f2" />
    <rect x="680" y="543" width="20" height="32" rx="8" fill="#121d31" />
    <circle cx="690" cy="540" r="26" fill="none" stroke="#121d31" stroke-width="11" />
  </g>

  <path d="M840 450H952" fill="none" stroke="#8da3c7" stroke-width="8" marker-end="url(#arrow)" />

  <g filter="url(#shadow)">
    <rect x="970" y="126" width="540" height="648" rx="48" fill="#0a101d" stroke="#5b6f92" stroke-width="5" />
    <rect x="1008" y="174" width="464" height="552" rx="20" fill="url(#camera)" />
    <circle cx="1365" cy="290" r="72" fill="#f4c480" opacity="0.9" />
    <path d="M1008 560l120-140 96 91 96-122 152 171v166h-464z" fill="#102a3d" opacity="0.82" />
    <path d="M1120 420l68-78 61 58 75-94 72 80" fill="none" stroke="#d6ecf7" stroke-width="12" stroke-linecap="round" stroke-linejoin="round" opacity="0.65" />
    <rect x="1038" y="461" width="226" height="225" rx="28" fill="#080d17" fill-opacity="0.82" stroke="#d9e2f2" stroke-opacity="0.18" stroke-width="3" />
    <circle cx="1080" cy="511" r="14" fill="#7048e8" />
    <rect x="1111" y="498" width="113" height="26" rx="13" fill="#7048e8" />
    <circle cx="1080" cy="564" r="14" fill="#43c867" />
    <rect x="1111" y="551" width="84" height="26" rx="13" fill="#43c867" />
    <circle cx="1080" cy="617" r="14" fill="#7048e8" />
    <rect x="1111" y="604" width="126" height="26" rx="13" fill="#7048e8" />
    <circle cx="1052" cy="202" r="9" fill="#ef5f67" />
    <circle cx="1080" cy="202" r="9" fill="#f5c451" />
    <circle cx="1108" cy="202" r="9" fill="#4fca74" />
  </g>

  <g fill="none" stroke="#d9e2f2" stroke-width="5" stroke-linecap="round" opacity="0.85">
    <path d="M933 744h66" />
    <path d="M966 711v66" />
    <path d="M1480 744h66" />
    <path d="M1513 711v66" />
  </g>
</svg>
